<svg
   xmlns:dc="http://purl.org/dc/elements/1.1/"
   xmlns:cc="http://creativecommons.org/ns#"
   xmlns:rdf="http://www.w3.org/1999/02/22-rdf-syntax-ns#"
   xmlns:svg="http://www.w3.org/2000/svg"
   xmlns="http://www.w3.org/2000/svg"
   xmlns:sodipodi="http://sodipodi.sourceforge.net/DTD/sodipodi-0.dtd"
   xmlns:inkscape="http://www.inkscape.org/namespaces/inkscape"
   id="svg2"
   height="320"
   width="320"
   version="1.1"
   viewBox="0 0 320 320.00001"
   sodipodi:docname="logo_white.svg"
   inkscape:version="0.92.4 (5da689c313, 2019-01-14)">
  <metadata
     id="metadata979">
    <rdf:RDF>
      <cc:Work
         rdf:about="">
        <dc:format>image/svg+xml</dc:format>
        <dc:type
           rdf:resource="http://purl.org/dc/dcmitype/StillImage" />
      </cc:Work>
    </rdf:RDF>
  </metadata>
  <defs
     id="defs977" />
  <sodipodi:namedview
     pagecolor="#ffffff"
     bordercolor="#666666"
     borderopacity="1"
     objecttolerance="10"
     gridtolerance="10"
     guidetolerance="10"
     inkscape:pageopacity="0"
     inkscape:pageshadow="2"
     inkscape:window-width="1920"
     inkscape:window-height="1001"
     id="namedview975"
     showgrid="false"
     inkscape:zoom="0.7375"
     inkscape:cx="160"
     inkscape:cy="160"
     inkscape:window-x="-9"
     inkscape:window-y="-9"
     inkscape:window-maximized="1"
     inkscape:current-layer="svg2" />
  <path
     inkscape:connector-curvature="0"
     d="m 277.40995,177.32816 c -11.68866,0 -22.054,5.79704 -28.32367,14.71317 l -48.83389,-22.46358 c 1.0082,-3.56015 1.54379,-7.27781 1.54379,-11.15303 0,-15.75286 -8.88463,-29.39482 -21.89649,-36.2631 L 197.76345,69.9251 c 1.32325,0.189036 2.678,0.283561 4.03273,0.283561 17.42268,0 31.50575,-14.114589 31.50575,-31.505734 0,-17.391175 -14.08307,-31.5057485 -31.50575,-31.5057485 -17.39115,0 -31.50572,14.1145735 -31.50572,31.5057485 0,11.562598 6.23811,21.70745 15.56381,27.157955 l -17.86373,52.236468 c -2.33145,-0.40956 -4.72586,-0.63009 -7.1518,-0.63009 -12.41326,0 -23.53479,5.51351 -31.03315,14.2406 L 68.337896,93.491405 c 0.724624,-2.362925 1.134185,-4.914901 1.134185,-7.529869 0,-13.925539 -11.279037,-25.204591 -25.204546,-25.204591 -13.925553,0 -25.204591,11.279052 -25.204591,25.204591 0,13.925538 11.279038,25.204594 25.204591,25.204594 6.742193,0 12.85433,-2.6465 17.391145,-6.96278 l 61.46768,38.21647 c -2.07937,4.91489 -3.2451,10.33389 -3.2451,16.0049 0,6.74221 1.6383,13.1379 4.53685,18.7459 l -56.363761,41.1465 c -6.206648,-5.8916 -14.587141,-9.4832 -23.786814,-9.4832 -19.124001,0 -34.6563357,15.50079 -34.6563357,34.65629 0,19.15547 15.5323347,34.65631 34.6563357,34.65631 19.155459,0 34.656306,-15.50084 34.656306,-34.65631 0,-5.38748 -1.22874,-10.45992 -3.402629,-14.99675 l 56.363758,-41.11495 c 7.08879,7.08878 16.79253,11.62245 27.5675,11.97216 l 7.90794,64.80415 c -9.3572,3.65781 -15.9734,12.76296 -15.9734,23.44341 0,13.92556 11.27907,25.20459 25.20458,25.20459 13.92554,0 25.20459,-11.27903 25.20459,-25.20459 0,-12.79132 -9.54623,-23.37725 -21.89649,-24.98405 l -7.90792,-64.80731 c 9.54624,-2.64646 17.67472,-8.72705 22.99919,-16.79254 l 48.83386,22.46361 c -0.69311,2.70948 -1.07118,5.5765 -1.07118,8.50652 0,19.15551 15.53231,34.65629 34.65631,34.65629 19.15546,0 34.65629,-15.50078 34.65629,-34.65629 0,-19.15547 -15.50083,-34.6563 -34.65629,-34.6563 z M 182.89275,38.702927 c 0,-10.428398 8.47504,-18.903447 18.90343,-18.903447 10.42841,0 18.90346,8.475049 18.90346,18.903447 0,10.365391 -8.38054,18.808906 -18.71443,18.903432 h -0.18903 c -4.44231,0 -8.50652,-1.512287 -11.72012,-4.095736 -4.37928,-3.434134 -7.18331,-8.790113 -7.18331,-14.807696 z M 56.838289,86.339593 c -0.126103,4.662873 -2.772485,8.664084 -6.647697,10.743463 -1.764314,0.945164 -3.780686,1.480783 -5.923057,1.480783 -6.962777,0 -12.602303,-5.639526 -12.602303,-12.602303 0,-6.962777 5.639526,-12.602303 12.602303,-12.602303 6.962732,0 12.602258,5.639526 12.602258,12.602303 0,0.125954 0,0.252028 -0.03156,0.378057 z M 44.267535,265.54421 c -12.161224,0 -22.054048,-9.89281 -22.054048,-22.054 0,-12.16122 9.892824,-22.05403 22.054048,-22.05403 5.009382,0 9.609233,1.6698 13.326913,4.50534 3.402614,2.5551 6.017582,6.11209 7.466847,10.20787 0.819135,2.29991 1.260244,4.75734 1.260244,7.34082 0,12.16119 -9.892825,22.054 -22.054004,22.054 z m 132.324055,9.45172 c 1.76431,0 3.43412,0.37807 4.94642,1.0397 4.50531,1.89035 7.65588,6.36416 7.65588,11.5626 0,6.96278 -5.63954,12.60229 -12.6023,12.60229 -6.96275,0 -12.6023,-5.63951 -12.6023,-12.60229 0,-4.09573 1.95339,-7.75039 5.00942,-10.05035 2.11088,-1.60679 4.75739,-2.55195 7.59288,-2.55195 z m 12.00369,-110.77415 c -0.879,4.22177 -2.70634,8.12847 -5.26147,11.43657 -3.2766,4.2848 -7.75039,7.59288 -12.88583,9.42021 -2.99306,1.10271 -6.23811,1.70131 -9.60924,1.70131 -0.97669,0 -1.95335,-0.063 -2.93004,-0.15753 -5.95458,-0.5986 -11.37357,-3.08754 -15.65837,-6.80522 -3.18206,-2.7725 -5.76554,-6.26964 -7.46685,-10.20786 -1.48077,-3.43413 -2.29993,-7.21481 -2.29993,-11.18454 0,-3.24509 0.5356,-6.33266 1.57531,-9.23117 1.38626,-4.06422 3.68616,-7.7189 6.64771,-10.71197 5.13541,-5.19843 12.25571,-8.41202 20.13217,-8.41202 1.00816,0 2.01636,0.063 2.99303,0.15752 4.34781,0.44107 8.38052,1.89034 11.90916,4.09573 8.06548,5.00943 13.45296,13.92556 13.45296,24.10191 0,1.98487 -0.22054,3.93822 -0.59861,5.79706 z m 88.81467,69.81668 c -12.16122,0 -22.054,-9.89277 -22.054,-22.054 0,-1.03967 0.063,-2.07938 0.25202,-3.08755 0.56711,-4.34779 2.45744,-8.31751 5.26147,-11.46809 4.03272,-4.59983 9.95579,-7.49836 16.54051,-7.49836 12.16119,0 22.054,9.89281 22.054,22.054 0,12.16123 -9.89281,22.054 -22.054,22.054 z"
     id="path14390"
     style="fill:#ffffff;stroke-width:3.15057349" />
</svg>
