<?xml version="1.0" encoding="UTF-8" standalone="no"?>
<svg
   xmlns:dc="http://purl.org/dc/elements/1.1/"
   xmlns:cc="http://creativecommons.org/ns#"
   xmlns:rdf="http://www.w3.org/1999/02/22-rdf-syntax-ns#"
   xmlns:svg="http://www.w3.org/2000/svg"
   xmlns="http://www.w3.org/2000/svg"
   xmlns:sodipodi="http://sodipodi.sourceforge.net/DTD/sodipodi-0.dtd"
   xmlns:inkscape="http://www.inkscape.org/namespaces/inkscape"
   id="svg2"
   height="320"
   width="1543.4"
   version="1.1"
   viewBox="0 0 1543.4268 320.00026"
   sodipodi:docname="logo_title_white.svg"
   inkscape:version="0.92.4 (5da689c313, 2019-01-14)">
  <metadata
     id="metadata953">
    <rdf:RDF>
      <cc:Work
         rdf:about="">
        <dc:format>image/svg+xml</dc:format>
        <dc:type
           rdf:resource="http://purl.org/dc/dcmitype/StillImage" />
      </cc:Work>
    </rdf:RDF>
  </metadata>
  <defs
     id="defs951" />
  <sodipodi:namedview
     pagecolor="#ffffff"
     bordercolor="#666666"
     borderopacity="1"
     objecttolerance="10"
     gridtolerance="10"
     guidetolerance="10"
     inkscape:pageopacity="0"
     inkscape:pageshadow="2"
     inkscape:window-width="1920"
     inkscape:window-height="1001"
     id="namedview949"
     showgrid="false"
     inkscape:zoom="0.65332011"
     inkscape:cx="838.89541"
     inkscape:cy="226.06528"
     inkscape:window-x="-9"
     inkscape:window-y="-9"
     inkscape:window-maximized="1"
     inkscape:current-layer="svg2" />
  <flowRoot
     xml:space="preserve"
     id="flowRoot13032"
     style="font-style:normal;font-weight:normal;font-size:40px;line-height:1.25;font-family:sans-serif;letter-spacing:0px;word-spacing:0px;fill:#ffffff;fill-opacity:1;stroke:none;"
     transform="matrix(2.8580379,0,0,2.8580379,-794.1701,-733.87472)"><flowRegion
       id="flowRegion13034"
       style="fill:#ffffff;"><rect
         id="rect13036"
         width="1155.6356"
         height="228.06584"
         x="394.90594"
         y="277.142"
         style="fill:#ffffff;" /></flowRegion><flowPara
       id="flowPara13038"
       style="font-style:normal;font-variant:normal;font-weight:normal;font-stretch:normal;font-size:64px;font-family:Lato;-inkscape-font-specification:Lato;fill:#ffffff;">hasöf solutions</flowPara></flowRoot>  <path
     inkscape:connector-curvature="0"
     d="m 236.25515,173.80097 c -7.85107,0 -14.81331,3.89378 -19.02454,9.88259 L 184.4297,168.59515 c 0.67719,-2.39129 1.03694,-4.88839 1.03694,-7.4913 0,-10.58094 -5.96765,-19.74402 -14.7075,-24.35732 l 11.99878,-35.0864 c 0.88881,0.12697 1.79877,0.19046 2.70872,0.19046 11.70252,0 21.16189,-9.480534 21.16189,-21.161875 0,-11.681365 -9.45937,-21.16189 -21.16189,-21.16189 -11.68134,0 -21.16187,9.480525 -21.16187,21.16189 0,7.766401 4.19004,14.580531 10.45395,18.241541 l -11.99876,35.086374 c -1.566,-0.2751 -3.17429,-0.42323 -4.80375,-0.42323 -8.33778,0 -15.80792,3.70333 -20.84444,9.56518 L 95.824942,117.48922 c 0.486715,-1.58714 0.761815,-3.30126 0.761815,-5.05769 0,-9.35355 -7.575948,-16.929504 -16.929483,-16.929504 -9.353556,0 -16.929503,7.575954 -16.929503,16.929504 0,9.35356 7.575947,16.92951 16.929503,16.92951 4.528627,0 8.634044,-1.77761 11.681344,-4.67678 l 41.286822,25.66936 c -1.39668,3.30125 -2.17968,6.9411 -2.17968,10.75023 0,4.52863 1.10042,8.8245 3.04732,12.59131 l -37.858591,27.63742 c -4.168902,-3.95729 -9.797948,-6.36972 -15.977215,-6.36972 -12.845269,0 -23.278083,10.41163 -23.278083,23.27806 0,12.86641 10.432814,23.27806 23.278083,23.27806 12.866409,0 23.278066,-10.41165 23.278066,-23.27806 0,-3.61868 -0.82532,-7.02575 -2.28549,-10.07307 l 37.8586,-27.61623 c 4.76142,4.76142 11.27927,7.80661 18.51663,8.0415 l 5.31163,43.52787 c -6.28508,2.45689 -10.72906,8.57267 -10.72906,15.74655 0,9.35356 7.57595,16.92951 16.92949,16.92951 9.35355,0 16.9295,-7.57595 16.9295,-16.92951 0,-8.59172 -6.41204,-15.70211 -14.7075,-16.78137 l -5.31163,-43.52999 c 6.41205,-1.77758 11.87182,-5.86182 15.44818,-11.27927 l 32.80089,15.08843 c -0.46555,1.81991 -0.71949,3.74565 -0.71949,5.71369 0,12.86643 10.43279,23.27806 23.27806,23.27806 12.86641,0 23.27806,-10.41163 23.27806,-23.27806 0,-12.86641 -10.41165,-23.27806 -23.27806,-23.27806 z M 172.76952,80.688715 c 0,-7.004586 5.69255,-12.697138 12.69712,-12.697138 7.00459,0 12.69714,5.692552 12.69714,12.697138 0,6.962261 -5.62907,12.633631 -12.57017,12.697121 h -0.12697 c -2.98382,0 -5.71369,-1.01578 -7.87221,-2.75104 -2.94149,-2.30665 -4.82491,-5.904169 -4.82491,-9.946081 z M 88.100843,112.68547 c -0.08465,3.13197 -1.862234,5.81952 -4.465142,7.2162 -1.185065,0.63485 -2.539423,0.99462 -3.978427,0.99462 -4.676778,0 -8.464752,-3.78798 -8.464752,-8.46476 0,-4.67678 3.787974,-8.46475 8.464752,-8.46475 4.676757,0 8.464731,3.78797 8.464731,8.46475 0,0.0846 0,0.16929 -0.02116,0.25394 z m -8.443569,120.36876 c -8.16849,0 -14.813331,-6.64484 -14.813331,-14.81331 0,-8.16849 6.644841,-14.81333 14.813331,-14.81333 3.364723,0 6.454366,1.12158 8.951467,3.02616 2.285485,1.71622 4.041911,4.1054 5.015362,6.85646 0.550199,1.54481 0.846482,3.19543 0.846482,4.93071 0,8.16847 -6.644841,14.81331 -14.813311,14.81331 z m 88.879866,6.34856 c 1.18506,0 2.30664,0.25394 3.32242,0.69835 3.02615,1.26971 5.14233,4.27469 5.14233,7.7664 0,4.67678 -3.78798,8.46475 -8.46475,8.46475 -4.67676,0 -8.46476,-3.78797 -8.46476,-8.46475 0,-2.75104 1.31206,-5.20581 3.36475,-6.75065 1.41784,-1.07925 3.19545,-1.7141 5.10001,-1.7141 z m 8.06268,-74.40516 c -0.59041,2.83569 -1.8178,5.45976 -3.53404,7.68176 -2.20084,2.87803 -5.20581,5.10001 -8.6552,6.3274 -2.01039,0.74067 -4.19004,1.14274 -6.45437,1.14274 -0.65603,0 -1.31203,-0.0423 -1.96806,-0.10581 -3.99959,-0.40207 -7.63943,-2.07385 -10.51746,-4.57095 -2.13734,-1.86225 -3.87262,-4.21122 -5.01536,-6.85645 -0.9946,-2.30665 -1.54482,-4.84608 -1.54482,-7.51247 0,-2.17968 0.35975,-4.25355 1.0581,-6.20043 0.93113,-2.72987 2.47594,-5.18465 4.46516,-7.19504 3.44937,-3.49171 8.23196,-5.65022 13.52244,-5.65022 0.67717,0 1.35436,0.0423 2.01037,0.1058 2.92035,0.29626 5.62906,1.26971 7.99919,2.75104 5.41744,3.36475 9.03612,9.35356 9.03612,16.18885 0,1.3332 -0.14813,2.64523 -0.40207,3.89378 z m 59.65533,46.89471 c -8.16849,0 -14.81331,-6.64482 -14.81331,-14.81331 0,-0.69833 0.0423,-1.39668 0.16929,-2.07385 0.38091,-2.92035 1.65062,-5.58674 3.53404,-7.70293 2.70871,-3.08963 6.68714,-5.03653 11.10998,-5.03653 8.16847,0 14.81331,6.64484 14.81331,14.81331 0,8.16849 -6.64484,14.81331 -14.81331,14.81331 z"
     id="path14390"
     style="stroke-width:2.11618781;fill:#ffffff" />
</svg>
