<svg
   xmlns:dc="http://purl.org/dc/elements/1.1/"
   xmlns:cc="http://creativecommons.org/ns#"
   xmlns:rdf="http://www.w3.org/1999/02/22-rdf-syntax-ns#"
   xmlns:svg="http://www.w3.org/2000/svg"
   xmlns="http://www.w3.org/2000/svg"
   xmlns:sodipodi="http://sodipodi.sourceforge.net/DTD/sodipodi-0.dtd"
   xmlns:inkscape="http://www.inkscape.org/namespaces/inkscape"
   id="svg2"
   height="320"
   width="1543.4"
   version="1.1"
   viewBox="0 0 1543.4268 320.00026"
   sodipodi:docname="logo_title_white.svg"
   inkscape:version="0.92.4 (5da689c313, 2019-01-14)">
  <metadata
     id="metadata953">
    <rdf:RDF>
      <cc:Work
         rdf:about="">
        <dc:format>image/svg+xml</dc:format>
        <dc:type
           rdf:resource="http://purl.org/dc/dcmitype/StillImage" />
      </cc:Work>
    </rdf:RDF>
  </metadata>
  <defs
     id="defs951" />
  <sodipodi:namedview
     pagecolor="#ffffff"
     bordercolor="#666666"
     borderopacity="1"
     objecttolerance="10"
     gridtolerance="10"
     guidetolerance="10"
     inkscape:pageopacity="0"
     inkscape:pageshadow="2"
     inkscape:window-width="1920"
     inkscape:window-height="1001"
     id="namedview949"
     showgrid="false"
     inkscape:zoom="0.65332011"
     inkscape:cx="838.89541"
     inkscape:cy="226.06528"
     inkscape:window-x="-9"
     inkscape:window-y="-9"
     inkscape:window-maximized="1"
     inkscape:current-layer="svg2" />
  <g
     aria-label="hasöf solutions"
     transform="matrix(2.8580379,0,0,2.8580379,-794.1701,-733.87472)"
     style="font-style:normal;font-weight:normal;font-size:40px;line-height:1.25;font-family:sans-serif;letter-spacing:0px;word-spacing:0px;fill:#ffffff;fill-opacity:1;stroke:none"
     id="flowRoot13032" />
  <g
     id="g887">
    <path
       id="path833"
       style="font-style:normal;font-weight:normal;font-size:64px;line-height:1.25;font-family:Lato;letter-spacing:0px;word-spacing:0px;fill:#ffffff;fill-opacity:1;stroke:none;font-variant:normal;font-stretch:normal;-inkscape-font-specification:Lato"
       d="m 405.14625,308.56658 q 2.08,-2.208 4.608,-3.52 2.528,-1.312 5.824,-1.312 2.656,0 4.672,0.896 2.048,0.864 3.392,2.496 1.376,1.6 2.08,3.872 0.704,2.272 0.704,5.024 v 20.64 h -5.728 v -20.64 q 0,-3.68 -1.696,-5.696 -1.664,-2.048 -5.088,-2.048 -2.528,0 -4.736,1.216 -2.176,1.216 -4.032,3.296 v 23.872 h -5.728 v -47.136 h 5.728 z"
       transform="matrix(2.8580379,0,0,2.8580379,-794.1701,-733.87472)" />
    <path
       id="path835"
       style="font-style:normal;font-weight:normal;font-size:64px;line-height:1.25;font-family:Lato;letter-spacing:0px;word-spacing:0px;fill:#ffffff;fill-opacity:1;stroke:none;font-variant:normal;font-stretch:normal;-inkscape-font-specification:Lato"
       d="m 452.73625,322.07058 q -3.936,0.128 -6.72,0.64 -2.752,0.48 -4.512,1.28 -1.728,0.8 -2.528,1.888 -0.768,1.088 -0.768,2.432 0,1.28 0.416,2.208 0.416,0.928 1.12,1.536 0.736,0.576 1.696,0.864 0.992,0.256 2.112,0.256 1.504,0 2.752,-0.288 1.248,-0.32 2.336,-0.896 1.12,-0.576 2.112,-1.376 1.024,-0.8 1.984,-1.824 z m -18.4,-13.248 q 2.688,-2.592 5.792,-3.872 3.104,-1.28 6.88,-1.28 2.72,0 4.832,0.896 2.112,0.896 3.552,2.496 1.44,1.6 2.176,3.872 0.736,2.272 0.736,4.992 v 20.736 h -2.528 q -0.832,0 -1.28,-0.256 -0.448,-0.288 -0.704,-1.088 l -0.64,-3.072 q -1.28,1.184 -2.496,2.112 -1.216,0.896 -2.56,1.536 -1.344,0.608 -2.88,0.928 -1.504,0.352 -3.36,0.352 -1.888,0 -3.552,-0.512 -1.664,-0.544 -2.912,-1.6 -1.216,-1.056 -1.952,-2.656 -0.704,-1.632 -0.704,-3.84 0,-1.92 1.056,-3.68 1.056,-1.792 3.424,-3.168 2.368,-1.376 6.176,-2.24 3.808,-0.896 9.344,-1.024 v -2.528 q 0,-3.776 -1.632,-5.696 -1.632,-1.952 -4.768,-1.952 -2.112,0 -3.552,0.544 -1.408,0.512 -2.464,1.184 -1.024,0.64 -1.792,1.184 -0.736,0.512 -1.472,0.512 -0.576,0 -0.992,-0.288 -0.416,-0.32 -0.704,-0.768 z"
       transform="matrix(2.8580379,0,0,2.8580379,-794.1701,-733.87472)" />
    <path
       id="path837"
       style="font-style:normal;font-weight:normal;font-size:64px;line-height:1.25;font-family:Lato;letter-spacing:0px;word-spacing:0px;fill:#ffffff;fill-opacity:1;stroke:none;font-variant:normal;font-stretch:normal;-inkscape-font-specification:Lato"
       d="m 485.79825,309.59058 q -0.384,0.704 -1.184,0.704 -0.48,0 -1.088,-0.352 -0.608,-0.352 -1.504,-0.768 -0.864,-0.448 -2.08,-0.8 -1.216,-0.384 -2.88,-0.384 -1.44,0 -2.592,0.384 -1.152,0.352 -1.984,0.992 -0.8,0.64 -1.248,1.504 -0.416,0.832 -0.416,1.824 0,1.248 0.704,2.08 0.736,0.832 1.92,1.44 1.184,0.608 2.688,1.088 1.504,0.448 3.072,0.992 1.6,0.512 3.104,1.152 1.504,0.64 2.688,1.6 1.184,0.96 1.888,2.368 0.736,1.376 0.736,3.328 0,2.24 -0.8,4.16 -0.8,1.888 -2.368,3.296 -1.568,1.376 -3.84,2.176 -2.272,0.8 -5.248,0.8 -3.392,0 -6.144,-1.088 -2.752,-1.12 -4.672,-2.848 l 1.344,-2.176 q 0.256,-0.416 0.608,-0.64 0.352,-0.224 0.896,-0.224 0.576,0 1.216,0.448 0.64,0.448 1.536,0.992 0.928,0.544 2.24,0.992 1.312,0.448 3.264,0.448 1.664,0 2.912,-0.416 1.248,-0.448 2.08,-1.184 0.832,-0.736 1.216,-1.696 0.416,-0.96 0.416,-2.048 0,-1.344 -0.736,-2.208 -0.704,-0.896 -1.888,-1.504 -1.184,-0.64 -2.72,-1.088 -1.504,-0.48 -3.104,-0.992 -1.568,-0.512 -3.104,-1.152 -1.504,-0.672 -2.688,-1.664 -1.184,-0.992 -1.92,-2.432 -0.704,-1.472 -0.704,-3.552 0,-1.856 0.768,-3.552 0.768,-1.728 2.24,-3.008 1.472,-1.312 3.616,-2.08 2.144,-0.768 4.896,-0.768 3.2,0 5.728,1.024 2.56,0.992 4.416,2.752 z"
       transform="matrix(2.8580379,0,0,2.8580379,-794.1701,-733.87472)" />
    <path
       id="path839"
       style="font-style:normal;font-weight:normal;font-size:64px;line-height:1.25;font-family:Lato;letter-spacing:0px;word-spacing:0px;fill:#ffffff;fill-opacity:1;stroke:none;font-variant:normal;font-stretch:normal;-inkscape-font-specification:Lato"
       d="m 508.33225,303.73458 q 3.552,0 6.4,1.184 2.848,1.184 4.864,3.36 2.016,2.176 3.072,5.28 1.088,3.072 1.088,6.88 0,3.84 -1.088,6.912 -1.056,3.072 -3.072,5.248 -2.016,2.176 -4.864,3.36 -2.848,1.152 -6.4,1.152 -3.584,0 -6.464,-1.152 -2.848,-1.184 -4.864,-3.36 -2.016,-2.176 -3.104,-5.248 -1.056,-3.072 -1.056,-6.912 0,-3.808 1.056,-6.88 1.088,-3.104 3.104,-5.28 2.016,-2.176 4.864,-3.36 2.88,-1.184 6.464,-1.184 z m 0,28.928 q 4.8,0 7.168,-3.2 2.368,-3.232 2.368,-8.992 0,-5.792 -2.368,-9.024 -2.368,-3.232 -7.168,-3.232 -2.432,0 -4.256,0.832 -1.792,0.832 -3.008,2.4 -1.184,1.568 -1.792,3.872 -0.576,2.272 -0.576,5.152 0,5.76 2.368,8.992 2.4,3.2 7.264,3.2 z m -2.464,-37.248 q 0,0.736 -0.288,1.376 -0.288,0.64 -0.8,1.12 -0.512,0.48 -1.184,0.768 -0.64,0.288 -1.376,0.288 -0.704,0 -1.344,-0.288 -0.64,-0.288 -1.152,-0.768 -0.48,-0.48 -0.768,-1.12 -0.288,-0.64 -0.288,-1.376 0,-0.736 0.288,-1.408 0.288,-0.672 0.768,-1.152 0.512,-0.512 1.152,-0.8 0.64,-0.288 1.344,-0.288 0.736,0 1.376,0.288 0.672,0.288 1.184,0.8 0.512,0.48 0.8,1.152 0.288,0.672 0.288,1.408 z m 12.192,0 q 0,0.736 -0.288,1.376 -0.288,0.64 -0.8,1.12 -0.48,0.48 -1.152,0.768 -0.64,0.288 -1.376,0.288 -0.736,0 -1.408,-0.288 -0.64,-0.288 -1.12,-0.768 -0.48,-0.48 -0.768,-1.12 -0.288,-0.64 -0.288,-1.376 0,-0.736 0.288,-1.408 0.288,-0.672 0.768,-1.152 0.48,-0.512 1.12,-0.8 0.672,-0.288 1.408,-0.288 0.736,0 1.376,0.288 0.672,0.288 1.152,0.8 0.512,0.48 0.8,1.152 0.288,0.672 0.288,1.408 z"
       transform="matrix(2.8580379,0,0,2.8580379,-794.1701,-733.87472)" />
    <path
       id="path841"
       style="font-style:normal;font-weight:normal;font-size:64px;line-height:1.25;font-family:Lato;letter-spacing:0px;word-spacing:0px;fill:#ffffff;fill-opacity:1;stroke:none;font-variant:normal;font-stretch:normal;-inkscape-font-specification:Lato"
       d="m 532.28025,336.66258 v -27.552 l -3.584,-0.416 q -0.672,-0.16 -1.12,-0.48 -0.416,-0.352 -0.416,-0.992 v -2.336 h 5.12 v -3.136 q 0,-2.784 0.768,-4.928 0.8,-2.176 2.24,-3.648 1.472,-1.504 3.52,-2.272 2.048,-0.768 4.608,-0.768 2.176,0 4,0.64 l -0.128,2.848 q -0.064,0.768 -0.864,0.832 -0.768,0.064 -2.08,0.064 -1.472,0 -2.688,0.384 -1.184,0.384 -2.048,1.248 -0.864,0.864 -1.344,2.272 -0.448,1.408 -0.448,3.488 v 2.976 h 9.344 v 4.128 h -9.152 v 27.648 z"
       transform="matrix(2.8580379,0,0,2.8580379,-794.1701,-733.87472)" />
    <path
       id="path843"
       style="font-style:normal;font-weight:normal;font-size:64px;line-height:1.25;font-family:Lato;letter-spacing:0px;word-spacing:0px;fill:#ffffff;fill-opacity:1;stroke:none;font-variant:normal;font-stretch:normal;-inkscape-font-specification:Lato"
       d="m 586.67325,309.59058 q -0.384,0.704 -1.184,0.704 -0.48,0 -1.088,-0.352 -0.608,-0.352 -1.504,-0.768 -0.864,-0.448 -2.08,-0.8 -1.216,-0.384 -2.88,-0.384 -1.44,0 -2.592,0.384 -1.152,0.352 -1.984,0.992 -0.8,0.64 -1.248,1.504 -0.416,0.832 -0.416,1.824 0,1.248 0.704,2.08 0.736,0.832 1.92,1.44 1.184,0.608 2.688,1.088 1.504,0.448 3.072,0.992 1.6,0.512 3.104,1.152 1.504,0.64 2.688,1.6 1.184,0.96 1.888,2.368 0.736,1.376 0.736,3.328 0,2.24 -0.8,4.16 -0.8,1.888 -2.368,3.296 -1.568,1.376 -3.84,2.176 -2.272,0.8 -5.248,0.8 -3.392,0 -6.144,-1.088 -2.752,-1.12 -4.672,-2.848 l 1.344,-2.176 q 0.256,-0.416 0.608,-0.64 0.352,-0.224 0.896,-0.224 0.576,0 1.216,0.448 0.64,0.448 1.536,0.992 0.928,0.544 2.24,0.992 1.312,0.448 3.264,0.448 1.664,0 2.912,-0.416 1.248,-0.448 2.08,-1.184 0.832,-0.736 1.216,-1.696 0.416,-0.96 0.416,-2.048 0,-1.344 -0.736,-2.208 -0.704,-0.896 -1.888,-1.504 -1.184,-0.64 -2.72,-1.088 -1.504,-0.48 -3.104,-0.992 -1.568,-0.512 -3.104,-1.152 -1.504,-0.672 -2.688,-1.664 -1.184,-0.992 -1.92,-2.432 -0.704,-1.472 -0.704,-3.552 0,-1.856 0.768,-3.552 0.768,-1.728 2.24,-3.008 1.472,-1.312 3.616,-2.08 2.144,-0.768 4.896,-0.768 3.2,0 5.728,1.024 2.56,0.992 4.416,2.752 z"
       transform="matrix(2.8580379,0,0,2.8580379,-794.1701,-733.87472)" />
    <path
       id="path845"
       style="font-style:normal;font-weight:normal;font-size:64px;line-height:1.25;font-family:Lato;letter-spacing:0px;word-spacing:0px;fill:#ffffff;fill-opacity:1;stroke:none;font-variant:normal;font-stretch:normal;-inkscape-font-specification:Lato"
       d="m 609.20725,303.73458 q 3.552,0 6.4,1.184 2.848,1.184 4.864,3.36 2.016,2.176 3.072,5.28 1.088,3.072 1.088,6.88 0,3.84 -1.088,6.912 -1.056,3.072 -3.072,5.248 -2.016,2.176 -4.864,3.36 -2.848,1.152 -6.4,1.152 -3.584,0 -6.464,-1.152 -2.848,-1.184 -4.864,-3.36 -2.016,-2.176 -3.104,-5.248 -1.056,-3.072 -1.056,-6.912 0,-3.808 1.056,-6.88 1.088,-3.104 3.104,-5.28 2.016,-2.176 4.864,-3.36 2.88,-1.184 6.464,-1.184 z m 0,28.928 q 4.8,0 7.168,-3.2 2.368,-3.232 2.368,-8.992 0,-5.792 -2.368,-9.024 -2.368,-3.232 -7.168,-3.232 -2.432,0 -4.256,0.832 -1.792,0.832 -3.008,2.4 -1.184,1.568 -1.792,3.872 -0.576,2.272 -0.576,5.152 0,5.76 2.368,8.992 2.4,3.2 7.264,3.2 z"
       transform="matrix(2.8580379,0,0,2.8580379,-794.1701,-733.87472)" />
    <path
       id="path847"
       style="font-style:normal;font-weight:normal;font-size:64px;line-height:1.25;font-family:Lato;letter-spacing:0px;word-spacing:0px;fill:#ffffff;fill-opacity:1;stroke:none;font-variant:normal;font-stretch:normal;-inkscape-font-specification:Lato"
       d="m 637.68125,289.52658 v 47.136 h -5.696 v -47.136 z"
       transform="matrix(2.8580379,0,0,2.8580379,-794.1701,-733.87472)" />
    <path
       id="path849"
       style="font-style:normal;font-weight:normal;font-size:64px;line-height:1.25;font-family:Lato;letter-spacing:0px;word-spacing:0px;fill:#ffffff;fill-opacity:1;stroke:none;font-variant:normal;font-stretch:normal;-inkscape-font-specification:Lato"
       d="m 673.57425,304.24658 v 32.416 h -3.392 q -1.216,0 -1.536,-1.184 l -0.448,-3.488 q -2.112,2.336 -4.736,3.776 -2.624,1.408 -6.016,1.408 -2.656,0 -4.704,-0.864 -2.016,-0.896 -3.392,-2.496 -1.376,-1.6 -2.08,-3.872 -0.672,-2.272 -0.672,-5.024 v -20.672 h 5.696 v 20.672 q 0,3.68 1.664,5.696 1.696,2.016 5.152,2.016 2.528,0 4.704,-1.184 2.208,-1.216 4.064,-3.328 v -23.872 z"
       transform="matrix(2.8580379,0,0,2.8580379,-794.1701,-733.87472)" />
    <path
       id="path851"
       style="font-style:normal;font-weight:normal;font-size:64px;line-height:1.25;font-family:Lato;letter-spacing:0px;word-spacing:0px;fill:#ffffff;fill-opacity:1;stroke:none;font-variant:normal;font-stretch:normal;-inkscape-font-specification:Lato"
       d="m 712.62325,336.66258 h -5.696 v -27.648 h -16.704 v 19.456 q 0,2.048 0.992,3.04 0.992,0.992 2.56,0.992 0.896,0 1.536,-0.224 0.672,-0.256 1.152,-0.544 0.48,-0.288 0.8,-0.512 0.352,-0.256 0.608,-0.256 0.448,0 0.8,0.544 l 1.664,2.72 q -1.472,1.376 -3.552,2.176 -2.08,0.768 -4.288,0.768 -3.84,0 -5.92,-2.144 -2.048,-2.144 -2.048,-6.176 v -19.84 h -3.904 q -0.512,0 -0.864,-0.288 -0.352,-0.32 -0.352,-0.96 v -2.272 l 5.312,-0.704 1.312,-9.984 q 0.096,-0.48 0.416,-0.768 0.352,-0.32 0.896,-0.32 h 2.88 v 11.168 h 22.4 z m 1.408,-42.816 q 0,0.832 -0.352,1.568 -0.32,0.704 -0.896,1.248 -0.544,0.544 -1.28,0.864 -0.736,0.32 -1.568,0.32 -0.832,0 -1.568,-0.32 -0.704,-0.32 -1.248,-0.864 -0.544,-0.544 -0.864,-1.248 -0.32,-0.736 -0.32,-1.568 0,-0.832 0.32,-1.568 0.32,-0.768 0.864,-1.312 0.544,-0.576 1.248,-0.896 0.736,-0.32 1.568,-0.32 0.832,0 1.568,0.32 0.736,0.32 1.28,0.896 0.576,0.544 0.896,1.312 0.352,0.736 0.352,1.568 z"
       transform="matrix(2.8580379,0,0,2.8580379,-794.1701,-733.87472)" />
    <path
       id="path853"
       style="font-style:normal;font-weight:normal;font-size:64px;line-height:1.25;font-family:Lato;letter-spacing:0px;word-spacing:0px;fill:#ffffff;fill-opacity:1;stroke:none;font-variant:normal;font-stretch:normal;-inkscape-font-specification:Lato"
       d="m 735.58225,303.73458 q 3.552,0 6.4,1.184 2.848,1.184 4.864,3.36 2.016,2.176 3.072,5.28 1.088,3.072 1.088,6.88 0,3.84 -1.088,6.912 -1.056,3.072 -3.072,5.248 -2.016,2.176 -4.864,3.36 -2.848,1.152 -6.4,1.152 -3.584,0 -6.464,-1.152 -2.848,-1.184 -4.864,-3.36 -2.016,-2.176 -3.104,-5.248 -1.056,-3.072 -1.056,-6.912 0,-3.808 1.056,-6.88 1.088,-3.104 3.104,-5.28 2.016,-2.176 4.864,-3.36 2.88,-1.184 6.464,-1.184 z m 0,28.928 q 4.8,0 7.168,-3.2 2.368,-3.232 2.368,-8.992 0,-5.792 -2.368,-9.024 -2.368,-3.232 -7.168,-3.232 -2.432,0 -4.256,0.832 -1.792,0.832 -3.008,2.4 -1.184,1.568 -1.792,3.872 -0.576,2.272 -0.576,5.152 0,5.76 2.368,8.992 2.4,3.2 7.264,3.2 z"
       transform="matrix(2.8580379,0,0,2.8580379,-794.1701,-733.87472)" />
    <path
       id="path855"
       style="font-style:normal;font-weight:normal;font-size:64px;line-height:1.25;font-family:Lato;letter-spacing:0px;word-spacing:0px;fill:#ffffff;fill-opacity:1;stroke:none;font-variant:normal;font-stretch:normal;-inkscape-font-specification:Lato"
       d="m 763.54425,308.95058 q 1.056,-1.184 2.24,-2.144 1.184,-0.96 2.496,-1.632 1.344,-0.704 2.816,-1.056 1.504,-0.384 3.232,-0.384 2.656,0 4.672,0.896 2.048,0.864 3.392,2.496 1.376,1.6 2.08,3.872 0.704,2.272 0.704,5.024 v 20.64 h -5.728 v -20.64 q 0,-3.68 -1.696,-5.696 -1.664,-2.048 -5.088,-2.048 -2.528,0 -4.736,1.216 -2.176,1.216 -4.032,3.296 v 23.872 h -5.728 v -32.416 h 3.424 q 1.216,0 1.504,1.184 z"
       transform="matrix(2.8580379,0,0,2.8580379,-794.1701,-733.87472)" />
    <path
       id="path857"
       style="font-style:normal;font-weight:normal;font-size:64px;line-height:1.25;font-family:Lato;letter-spacing:0px;word-spacing:0px;fill:#ffffff;fill-opacity:1;stroke:none;font-variant:normal;font-stretch:normal;-inkscape-font-specification:Lato"
       d="m 812.79825,309.59058 q -0.384,0.704 -1.184,0.704 -0.48,0 -1.088,-0.352 -0.608,-0.352 -1.504,-0.768 -0.864,-0.448 -2.08,-0.8 -1.216,-0.384 -2.88,-0.384 -1.44,0 -2.592,0.384 -1.152,0.352 -1.984,0.992 -0.8,0.64 -1.248,1.504 -0.416,0.832 -0.416,1.824 0,1.248 0.704,2.08 0.736,0.832 1.92,1.44 1.184,0.608 2.688,1.088 1.504,0.448 3.072,0.992 1.6,0.512 3.104,1.152 1.504,0.64 2.688,1.6 1.184,0.96 1.888,2.368 0.736,1.376 0.736,3.328 0,2.24 -0.8,4.16 -0.8,1.888 -2.368,3.296 -1.568,1.376 -3.84,2.176 -2.272,0.8 -5.248,0.8 -3.392,0 -6.144,-1.088 -2.752,-1.12 -4.672,-2.848 l 1.344,-2.176 q 0.256,-0.416 0.608,-0.64 0.352,-0.224 0.896,-0.224 0.576,0 1.216,0.448 0.64,0.448 1.536,0.992 0.928,0.544 2.24,0.992 1.312,0.448 3.264,0.448 1.664,0 2.912,-0.416 1.248,-0.448 2.08,-1.184 0.832,-0.736 1.216,-1.696 0.416,-0.96 0.416,-2.048 0,-1.344 -0.736,-2.208 -0.704,-0.896 -1.888,-1.504 -1.184,-0.64 -2.72,-1.088 -1.504,-0.48 -3.104,-0.992 -1.568,-0.512 -3.104,-1.152 -1.504,-0.672 -2.688,-1.664 -1.184,-0.992 -1.92,-2.432 -0.704,-1.472 -0.704,-3.552 0,-1.856 0.768,-3.552 0.768,-1.728 2.24,-3.008 1.472,-1.312 3.616,-2.08 2.144,-0.768 4.896,-0.768 3.2,0 5.728,1.024 2.56,0.992 4.416,2.752 z"
       transform="matrix(2.8580379,0,0,2.8580379,-794.1701,-733.87472)" />
    <path
       style="stroke-width:2.11618781;fill:#ffffff"
       id="path14390"
       d="m 236.25515,173.80097 c -7.85107,0 -14.81331,3.89378 -19.02454,9.88259 L 184.4297,168.59515 c 0.67719,-2.39129 1.03694,-4.88839 1.03694,-7.4913 0,-10.58094 -5.96765,-19.74402 -14.7075,-24.35732 l 11.99878,-35.0864 c 0.88881,0.12697 1.79877,0.19046 2.70872,0.19046 11.70252,0 21.16189,-9.480534 21.16189,-21.161875 0,-11.681365 -9.45937,-21.16189 -21.16189,-21.16189 -11.68134,0 -21.16187,9.480525 -21.16187,21.16189 0,7.766401 4.19004,14.580531 10.45395,18.241541 l -11.99876,35.086374 c -1.566,-0.2751 -3.17429,-0.42323 -4.80375,-0.42323 -8.33778,0 -15.80792,3.70333 -20.84444,9.56518 L 95.824942,117.48922 c 0.486715,-1.58714 0.761815,-3.30126 0.761815,-5.05769 0,-9.35355 -7.575948,-16.929504 -16.929483,-16.929504 -9.353556,0 -16.929503,7.575954 -16.929503,16.929504 0,9.35356 7.575947,16.92951 16.929503,16.92951 4.528627,0 8.634044,-1.77761 11.681344,-4.67678 l 41.286822,25.66936 c -1.39668,3.30125 -2.17968,6.9411 -2.17968,10.75023 0,4.52863 1.10042,8.8245 3.04732,12.59131 l -37.858591,27.63742 c -4.168902,-3.95729 -9.797948,-6.36972 -15.977215,-6.36972 -12.845269,0 -23.278083,10.41163 -23.278083,23.27806 0,12.86641 10.432814,23.27806 23.278083,23.27806 12.866409,0 23.278066,-10.41165 23.278066,-23.27806 0,-3.61868 -0.82532,-7.02575 -2.28549,-10.07307 l 37.8586,-27.61623 c 4.76142,4.76142 11.27927,7.80661 18.51663,8.0415 l 5.31163,43.52787 c -6.28508,2.45689 -10.72906,8.57267 -10.72906,15.74655 0,9.35356 7.57595,16.92951 16.92949,16.92951 9.35355,0 16.9295,-7.57595 16.9295,-16.92951 0,-8.59172 -6.41204,-15.70211 -14.7075,-16.78137 l -5.31163,-43.52999 c 6.41205,-1.77758 11.87182,-5.86182 15.44818,-11.27927 l 32.80089,15.08843 c -0.46555,1.81991 -0.71949,3.74565 -0.71949,5.71369 0,12.86643 10.43279,23.27806 23.27806,23.27806 12.86641,0 23.27806,-10.41163 23.27806,-23.27806 0,-12.86641 -10.41165,-23.27806 -23.27806,-23.27806 z M 172.76952,80.688715 c 0,-7.004586 5.69255,-12.697138 12.69712,-12.697138 7.00459,0 12.69714,5.692552 12.69714,12.697138 0,6.962261 -5.62907,12.633631 -12.57017,12.697121 h -0.12697 c -2.98382,0 -5.71369,-1.01578 -7.87221,-2.75104 -2.94149,-2.30665 -4.82491,-5.904169 -4.82491,-9.946081 z M 88.100843,112.68547 c -0.08465,3.13197 -1.862234,5.81952 -4.465142,7.2162 -1.185065,0.63485 -2.539423,0.99462 -3.978427,0.99462 -4.676778,0 -8.464752,-3.78798 -8.464752,-8.46476 0,-4.67678 3.787974,-8.46475 8.464752,-8.46475 4.676757,0 8.464731,3.78797 8.464731,8.46475 0,0.0846 0,0.16929 -0.02116,0.25394 z m -8.443569,120.36876 c -8.16849,0 -14.813331,-6.64484 -14.813331,-14.81331 0,-8.16849 6.644841,-14.81333 14.813331,-14.81333 3.364723,0 6.454366,1.12158 8.951467,3.02616 2.285485,1.71622 4.041911,4.1054 5.015362,6.85646 0.550199,1.54481 0.846482,3.19543 0.846482,4.93071 0,8.16847 -6.644841,14.81331 -14.813311,14.81331 z m 88.879866,6.34856 c 1.18506,0 2.30664,0.25394 3.32242,0.69835 3.02615,1.26971 5.14233,4.27469 5.14233,7.7664 0,4.67678 -3.78798,8.46475 -8.46475,8.46475 -4.67676,0 -8.46476,-3.78797 -8.46476,-8.46475 0,-2.75104 1.31206,-5.20581 3.36475,-6.75065 1.41784,-1.07925 3.19545,-1.7141 5.10001,-1.7141 z m 8.06268,-74.40516 c -0.59041,2.83569 -1.8178,5.45976 -3.53404,7.68176 -2.20084,2.87803 -5.20581,5.10001 -8.6552,6.3274 -2.01039,0.74067 -4.19004,1.14274 -6.45437,1.14274 -0.65603,0 -1.31203,-0.0423 -1.96806,-0.10581 -3.99959,-0.40207 -7.63943,-2.07385 -10.51746,-4.57095 -2.13734,-1.86225 -3.87262,-4.21122 -5.01536,-6.85645 -0.9946,-2.30665 -1.54482,-4.84608 -1.54482,-7.51247 0,-2.17968 0.35975,-4.25355 1.0581,-6.20043 0.93113,-2.72987 2.47594,-5.18465 4.46516,-7.19504 3.44937,-3.49171 8.23196,-5.65022 13.52244,-5.65022 0.67717,0 1.35436,0.0423 2.01037,0.1058 2.92035,0.29626 5.62906,1.26971 7.99919,2.75104 5.41744,3.36475 9.03612,9.35356 9.03612,16.18885 0,1.3332 -0.14813,2.64523 -0.40207,3.89378 z m 59.65533,46.89471 c -8.16849,0 -14.81331,-6.64482 -14.81331,-14.81331 0,-0.69833 0.0423,-1.39668 0.16929,-2.07385 0.38091,-2.92035 1.65062,-5.58674 3.53404,-7.70293 2.70871,-3.08963 6.68714,-5.03653 11.10998,-5.03653 8.16847,0 14.81331,6.64484 14.81331,14.81331 0,8.16849 -6.64484,14.81331 -14.81331,14.81331 z"
       inkscape:connector-curvature="0" />
  </g>
</svg>
